<svg width="85" height="85" viewBox="0 0 85 85" fill="none" xmlns="http://www.w3.org/2000/svg">
<circle cx="42.3468" cy="42.3468" r="30.5" transform="rotate(-30 42.3468 42.3468)" stroke="#FC1E6E" stroke-opacity="0.6"/>
<circle cx="42.3464" cy="42.3469" r="27.5" transform="rotate(-30 42.3464 42.3469)" stroke="#FC1E6E" stroke-opacity="0.6"/>
<path d="M26.1603 47.6848L26.6584 48.5474L25.1276 49.4312C25.6519 50.3295 26.7278 50.943 28.2047 50.6203L28.1384 51.775C27.1231 51.989 26.2179 51.7787 25.4884 51.2865C25.578 52.2327 25.3073 53.1896 24.5835 53.9965L23.5299 53.4998C24.5659 52.3547 24.5781 51.0283 24.0366 50.0611L22.4636 50.9693L21.9655 50.1066L26.1603 47.6848ZM25.8152 55.0558L25.3221 54.2016L30.5064 51.2084L32.0786 53.9317L30.9961 54.5567L29.917 52.6876L25.8152 55.0558ZM29.2334 51.5036L26.5528 46.8605L27.6353 46.2355L28.7144 48.1046L29.7546 47.504L30.2722 48.4005L29.232 49.0011L30.3159 50.8786L29.2334 51.5036ZM32.5286 44.8087C33.1176 45.8387 34.1955 46.4849 35.65 46.1526L35.5717 47.3255C34.5768 47.5165 33.7092 47.3126 32.9832 46.8071C33.1088 47.8058 32.851 48.7948 32.1056 49.6424L31.0409 49.1069C32.1119 47.9247 32.0828 46.5658 31.4669 45.4893L31.0616 44.7873L32.1526 44.1575L32.5286 44.8087ZM33.8072 50.9491C33.2603 50.0018 33.9469 48.8668 35.5901 47.9238C37.2326 46.9699 38.5588 46.9428 39.1099 47.8875C39.655 48.8414 38.9611 49.9637 37.3137 50.9092C35.6754 51.8607 34.3565 51.9005 33.8072 50.9491ZM34.8813 50.3289C35.1279 50.756 35.8112 50.6603 36.8303 50.0719C37.8536 49.4811 38.2782 48.9372 38.0358 48.5076C37.7777 48.0703 37.0968 48.1702 36.0735 48.7611C35.0544 49.3494 34.6274 49.8892 34.8813 50.3289ZM34.3035 45.4415L33.7957 44.562L35.2419 43.727L34.4265 42.3147L35.5006 41.6945L38.1031 46.2023L37.029 46.8224L35.7497 44.6066L34.3035 45.4415ZM40.5511 41.5751C41.2231 42.7489 42.6302 43.7408 44.2339 43.5986L44.1218 44.791C43.0363 44.8933 41.9733 44.4583 41.0943 43.7367C41.3377 44.9493 41.2015 46.1782 40.5551 47.1095L39.4361 46.6166C40.3732 45.2807 40.195 43.4778 39.4686 42.2001L39.1951 41.7265L37.5629 42.6689L37.0551 41.7894L41.3175 39.3284L41.8253 40.208L40.2777 41.1015L40.5511 41.5751ZM45.9317 45.9336L41.4883 38.2375L42.5708 37.6125L44.2652 40.5472L45.3984 39.8929L45.9209 40.7978L44.7876 41.4521L47.0142 45.3086L45.9317 45.9336ZM49.7238 36.5838C50.3927 37.7424 51.484 38.6854 52.9306 38.6226L52.7892 39.7643C51.8906 39.8095 51.0708 39.454 50.368 38.8617C50.5704 39.8275 50.5098 40.7871 50.0416 41.5874L48.9639 41.1271C49.6978 39.8689 49.3913 38.3713 48.7089 37.1697L48.6259 37.0259L47.3488 37.7632L46.841 36.8837L48.1181 36.1464L47.5175 35.1061L48.5239 34.5251L49.1245 35.5653L50.3931 34.8329L50.9009 35.7124L49.6408 36.44L49.7238 36.5838ZM54.2262 40.6712L50.0513 33.4402L51.0747 32.8494L52.7202 35.6995L53.3714 35.3235L51.6624 32.3635L52.6942 31.7678L57.1376 39.4639L56.1058 40.0596L53.8792 36.2031L53.228 36.5791L55.2495 40.0804L54.2262 40.6712ZM57.0769 29.9253L57.575 30.7879L55.5621 31.95L55.9283 32.5843L57.8651 31.4662L58.3387 32.2865L56.402 33.4047L56.795 34.0855C57.6443 33.5839 58.2549 33.1863 58.8987 32.651L59.5067 33.4502C58.6988 34.1309 57.9632 34.5951 56.7979 35.2622L56.2735 35.565L54.0323 31.6831L57.0769 29.9253ZM58.1562 36.4626L57.6582 35.6L62.9778 32.5287L64.5208 35.2012L63.4467 35.8213L62.4018 34.0115L58.1562 36.4626ZM60.0602 33.7057L57.4625 29.2065L58.469 28.6254L59.4748 30.3676L60.1429 29.9819L59.059 28.1044L60.0823 27.5135L62.7923 32.2073L61.7689 32.7981L60.641 30.8445L59.9729 31.2303L61.0666 33.1247L60.0602 33.7057Z" fill="#FC1E6E" fill-opacity="0.6"/>
<rect x="20.0254" y="43.6865" width="40" height="1" transform="rotate(-30 20.0254 43.6865)" fill="#FC1E6E" fill-opacity="0.6"/>
<rect x="30.0254" y="61.0068" width="40" height="1" transform="rotate(-30 30.0254 61.0068)" fill="#FC1E6E" fill-opacity="0.6"/>
<path d="M30.3477 21.562L33.0473 23.9928L36.1934 22.1764L34.7158 25.4951L37.4154 27.9258L33.8026 27.5461L32.3251 30.8647L31.5698 27.3114L27.957 26.9317L31.103 25.1153L30.3477 21.562Z" fill="#FC1E6E" fill-opacity="0.6"/>
<path d="M22.8207 30.5264L24.4405 31.9848L26.3281 30.895L25.4416 32.8862L27.0614 34.3447L24.8937 34.1168L24.0071 36.108L23.554 33.976L21.3863 33.7482L23.2739 32.6584L22.8207 30.5264Z" fill="#FC1E6E" fill-opacity="0.6"/>
<path d="M41.0063 20.0264L42.6261 21.4848L44.5137 20.395L43.6271 22.3862L45.2469 23.8447L43.0792 23.6168L42.1927 25.608L41.7395 23.476L39.5718 23.2482L41.4594 22.1584L41.0063 20.0264Z" fill="#FC1E6E" fill-opacity="0.6"/>
<path d="M54.8477 63.9976L54.0924 60.4442L57.2384 58.6279L53.6256 58.2482L52.8703 54.6948L51.3928 58.0135L47.78 57.6337L50.4796 60.0645L49.0021 63.3832L52.1481 61.5668L54.8477 63.9976Z" fill="#FC1E6E" fill-opacity="0.6"/>
<path d="M43.3207 66.0332L42.8676 63.9012L44.7552 62.8114L42.5875 62.5836L42.1343 60.4516L41.2478 62.4428L39.0801 62.2149L40.6999 63.6734L39.8133 65.6646L41.701 64.5747L43.3207 66.0332Z" fill="#FC1E6E" fill-opacity="0.6"/>
<path d="M61.5063 55.5332L61.0531 53.4012L62.9407 52.3114L60.773 52.0836L60.3199 49.9516L59.4333 51.9428L57.2656 51.7149L58.8854 53.1734L57.9989 55.1646L59.8865 54.0747L61.5063 55.5332Z" fill="#FC1E6E" fill-opacity="0.6"/>
</svg>